<?xml version="1.0" encoding="utf-8"?>
<!-- Generator: Adobe Illustrator 26.0.0, SVG Export Plug-In . SVG Version: 6.00 Build 0)  -->
<svg version="1.1" id="Layer_1" xmlns="http://www.w3.org/2000/svg" xmlns:xlink="http://www.w3.org/1999/xlink" x="0px" y="0px"
	 viewBox="0 0 595.3 841.9" style="enable-background:new 0 0 595.3 841.9;" xml:space="preserve">
<style type="text/css">
	.st0{fill:#269D48;}
	.st1{fill:#6CBE45;}
</style>
<path class="st1" d="M390.4,447.6h10.4c5.2-2.6,6.9-19.1,6.9-19.3v-20c-2.5-9.7-16.3-10.1-16.4-10.1h-13.4v-17.3
	c-4.3-11.4-12.4-12.9-17.7-13.9c-1.3-0.2-2.4-0.5-3.3-0.8l-0.1,0c-4.3-2.7-27.2-3.6-27.4-3.6h-97.9c0,0-4.9,0.5-23.3,4.1
	c-17.4,3.3-19.5,16.4-19.5,16.5v15l-14.8,0.9c-14.9,1.6-14.1,11.5-14.1,11.9v17c1.8,15.3,4.5,18.5,5.6,19.1c0.5,0.3,0.7,0.2,0.8,0.2
	l0.2,0h10.9c0.7,0,1.2-1.1,1.4-1.7c-0.1-2.2-0.8-32,0-35.6c1-4.1,9.2-2.6,9.6-2.5l0.4,0.1v129.1c3.7,12.7,15.1,13.7,15.6,13.7l0.5,0
	l-0.2,17.3c1.8,3.2,5.9,3.7,6,3.7c0,0,0,0,0.1,0c1.7,0,21,0,24.7,0c3.2,0,4.3-3.5,4.4-4v-11.6h87.8l-0.2,11.3
	c2.2,4.6,5.7,4.1,5.9,4.1c0.3,0,17.5,0.4,24,0c2.3-0.2,3.8-0.8,4.6-1.8c0.8-1.1,0.5-2.2,0.5-2.3l0-0.1v-16.5l0.4-0.1
	c13.8-2.9,15.7-12.6,15.7-12.7l0-131.3l7.5,0c2.6,0.7,3.1,2.9,3.1,3l0,0.1v36.9L390.4,447.6z M248.2,368.6L248.2,368.6l71.9,0
	c0.8,0,1.4,0.3,1.9,0.8c1.1,1.2,1.1,3.4,1.1,3.5c0,0.1,0.3,3.4,0,5.8c-0.3,2.2-2.3,2.9-3.4,3l-71.4,0c-2.2,0-3.2-1.8-3.4-2.8l0-7.2
	C244.9,369.1,248.1,368.6,248.2,368.6z M243.6,530.4c0.2,1.9-1.7,2.8-2.8,3h-18.9c-11-0.7-15.5-3.7-17.2-6.1
	c-1.6-2.1-1.4-4.1-1.3-4.4V511c-0.6-2.7,1.9-4.2,3.3-4.6l0.1,0l7.3,0c26.7,7.3,29.4,18,29.5,18.5l0,0.1L243.6,530.4z M293.2,498.6
	c-15.6,0-35.6-0.1-35.9-0.1c-1.5-0.1-35.2-3.3-44.2-8.6l-0.7-0.4c-8.4-5-8.6-5.1-9-14.1c-0.4-8.8,0-72.9,0-74.8
	c0-0.3-0.1-1.7,1.1-3.4c1.5-2.1,5.4-4.9,15.2-6.1c17-2.1,19.1-1.9,19.2-1.9l94.2,0c0.6,0,13.6,0.9,17.7,2.2c0.7,0.2,1.5,0.4,2.3,0.6
	c3.9,0.9,8.7,2.1,11.1,8.5l0,0.2v79.1c0,0.3,0.1,8.2-12.8,11c-12.4,4.2-33.6,7.7-41.2,7.9C307.8,498.6,301.1,498.6,293.2,498.6z
	 M364.4,523.8c-0.7,7.4-18.1,9.4-18.9,9.5c-0.5,0-7.6,0.2-13.1,0.2c-2.9,0-5.3,0-6.1-0.2c-2.1-0.4-2.5-2.1-2.4-2.9v-6l0.1-0.1
	c8.3-14.1,29.8-17.8,30-17.8l6.2,0c3,0,4.2,3.8,4.2,4l0,0.1V523.8z"/>
</svg>
