<?xml version="1.0" encoding="utf-8"?>
<!-- Generator: Adobe Illustrator 26.0.0, SVG Export Plug-In . SVG Version: 6.00 Build 0)  -->
<svg version="1.1" id="Layer_1" xmlns="http://www.w3.org/2000/svg" xmlns:xlink="http://www.w3.org/1999/xlink" x="0px" y="0px"
	 viewBox="0 0 850.4 1133.9" style="enable-background:new 0 0 850.4 1133.9;" xml:space="preserve">
<style type="text/css">
	.st0{fill:#269D48;}
	.st1{fill:#6CBE45;}
</style>
<g id="Layer_1_00000106861275805559108410000014101867377095395724_">
	
		<image style="display:none;overflow:visible;enable-background:new    ;" width="361" height="360" xlink:href="1E3225CD.jpeg"  transform="matrix(0.9972 0 0 0.9972 245.3506 387.4986)">
	</image>
</g>
<path class="st0" d="M549.3,528.8c-1.6-5.4-8-7.7-9.3-8.2c-6.1,0.5-12.3,0.9-18.4,1.4c-3.4-8.6-6.8-17.2-10.2-25.9
	c-0.6-2.3-2.8-9.7-9.9-15.3c-7.6-6-15.8-6.2-18.1-6.1H365.3c-2.9,0.2-9,1.1-15.2,5.5c-7.2,5-10.2,11.7-11.2,14.3l-9.2,25.9
	c-7,0-14.1,0-21.1,0c-1.5,0.9-6.5,3.9-7.6,9.3c-1.5,7.2,4.4,16.1,15.1,19.2l-7.5,28.9c0,21.6,0,43.1,0,64.7c0,2.1,0.5,8.7,5.5,12.9
	c4,3.4,8.8,3.4,15.3,3.4c6.1,0,10.5,0,14.6-3.1c5.8-4.3,6.9-11.3,7.2-13.3c-0.1-4-0.1-7.9-0.2-11.9l148.6,0.7c0,4.3,0,8.6,0,12.9
	c0,2.3,0.4,7.8,4.4,11.6c3.7,3.5,8.4,3.5,16.7,3.4c8.6-0.1,13.8-0.1,17.4-4.1c3.2-3.6,3.2-8.6,3.1-10.9v-64l-1.7-11.9
	c-1.7-6.7-3.4-13.4-5.1-20.1C545.6,544.9,551.3,535.4,549.3,528.8z M337,608.2c-7.7,0-14-6.2-14-14s6.2-14,14-14c7.7,0,14,6.2,14,14
	S344.7,608.2,337,608.2z M483.4,601.4H365.3v-21.1h118.1V601.4z M345.6,551.7c-0.9-0.1-2.3-0.3-3.9-0.7c-1.8-0.4-2.9-0.7-3.4-1
	c-3.2-2.1,0.9-13.6,0.9-13.6c4.2-11.9,8.1-22.7,11.6-32c1.5-5.7,3.9-9.6,5.6-11.8c1.4-1.9,3.1-4.1,6-5.9c4.2-2.7,8.4-3,10.5-3.1
	h104.5c2-0.3,6.7-0.8,10.5,2c1.7,1.3,2.7,2.7,4.4,5.5c1.4,2.3,3.2,5.7,4.8,10.2c4.3,10.5,8.6,21.1,12.9,31.7
	c1.7,3.8,2.5,7.2,2.9,9.5c1,5.4,0.1,6.7-0.2,7.2c-1.9,2.6-6.1,2.1-6.8,2C452.5,551.7,399.1,551.7,345.6,551.7z M513.5,608.2
	c-7.7,0-14-6.2-14-14s6.2-14,14-14c7.7,0,14,6.2,14,14S521.2,608.2,513.5,608.2z"/>
</svg>
