<?xml version="1.0" encoding="utf-8"?>
<!-- Generator: Adobe Illustrator 26.0.0, SVG Export Plug-In . SVG Version: 6.00 Build 0)  -->
<svg version="1.1" id="Layer_1" xmlns="http://www.w3.org/2000/svg" xmlns:xlink="http://www.w3.org/1999/xlink" x="0px" y="0px"
	 viewBox="0 0 595.3 841.9" style="enable-background:new 0 0 595.3 841.9;" xml:space="preserve">
<style type="text/css">
	.st0{fill:#269D48;}
	.st1{fill:#6CBE45;}
</style>
<image style="display:none;overflow:visible;enable-background:new    ;" width="500" height="500" xlink:href="43C10AB0.jpeg"  transform="matrix(0.75 0 0 0.75 87.6429 184.9286)">
</image>
<g>
	<path class="st0" d="M189.7,276.7V410h171.6c0-8.2,0.6-113.1-0.8-133.3c-1.4-20.5-21.2-23.3-21.4-23.3l-22.9-0.2v-3.6
		c0-0.5-0.1-0.9-0.4-1.1c-0.6-0.6-1.7-0.4-1.7-0.4c-0.5,0-32.9-0.1-55.2-0.1c-11.2,0-20,0-20.8,0.1c-2.1,0.1-2.4,1.8-2.4,1.8l0,3.6
		h-23.8C192.9,256.7,189.8,275.8,189.7,276.7z M265.4,391.9l-0.1,0.1c-0.1,0.1-1.9,3.5-4.7,3.6c-0.1,0-0.1,0-0.2,0
		c-1.7,0-3.4-1.2-5-3.6l-0.1-0.1V363l0.1-0.1c0.1-0.1,2.2-3.4,5.2-3.4c0,0,0,0,0.1,0c1.7,0,3.3,1.2,4.6,3.5l0.1,0.1V391.9z
		 M280.5,391.9l-0.1,0.1c-0.1,0.1-1.9,3.5-4.7,3.6c-0.1,0-0.1,0-0.2,0c-1.7,0-3.4-1.2-5-3.6l-0.1-0.1V363l0.1-0.1
		c0.1-0.1,2.2-3.4,5.2-3.4c0,0,0,0,0.1,0c1.7,0,3.3,1.2,4.6,3.5l0.1,0.1V391.9z M295.3,391.9l-0.1,0.1c-0.1,0.1-1.9,3.5-4.7,3.6
		c-0.1,0-0.1,0-0.2,0c-1.7,0-3.4-1.2-5-3.6l-0.1-0.1V363l0.1-0.1c0.1-0.1,2.2-3.4,5.2-3.4c0,0,0,0,0.1,0c1.7,0,3.3,1.2,4.6,3.5
		l0.1,0.1V391.9z M339.1,377.8c0,12.2-12.7,13-12.9,13c-0.2,0-13.4-0.8-13.4-13c0-12.1,13.2-13,13.3-13h0h0
		C326.4,364.9,339.1,365.7,339.1,377.8z M237.2,263.1c0-0.3,0-1.5,0.9-2.5c0.7-0.7,1.6-1.1,2.8-1.2c3.3-0.2,66.3,0,69,0
		c1.4,0.1,4,1.1,4,3.7v4.8c0,0,0.1,1.6-1,2.7c-0.6,0.7-1.6,1-2.7,1h-69.8c0,0-0.1,0-0.1,0c-0.9,0-2.5-0.5-3.1-2.6
		C236.6,266.7,237.1,263.6,237.2,263.1z M214.5,292.5c0-0.1,0.3-10.6,11.9-11.6c11.2-1,97.4,0,98.2,0c0.1,0,10.8,1,11.7,11.5
		c1,10.2,0,38.4,0,38.6l0,0.5H214.5V292.5z M224.3,364.8L224.3,364.8c0.2,0,13.5,0.2,13.5,13s-13.4,13-13.5,13
		c-0.1,0-12.5-0.5-12.5-12.9C211.8,365.5,224.2,364.9,224.3,364.8z"/>
	<g>
		<path class="st0" d="M189.2,415.9h172.8l3.5,22.1c0,0,3,10.1-5.4,10.5s-169.1,0-169.1,0s-6.9-0.9-6-10.1
			C185.8,429.2,189.2,415.9,189.2,415.9z"/>
		<path class="st0" d="M312.4,449.2c-49.7,0-120.4-0.2-121.5-0.2c-0.1,0-7.4-1-6.5-10.6c0.9-9.1,4.2-22.4,4.2-22.6l0.1-0.4h173.6
			l3.5,22.5c0,0.1,1.6,5.4-0.7,8.6c-1.1,1.5-2.8,2.4-5.1,2.5C357.2,449.1,337.5,449.2,312.4,449.2z M189.6,416.4
			c-0.6,2.2-3.4,13.8-4.1,22c-0.8,8.6,5.3,9.5,5.6,9.5c1.6,0,160.7,0.4,169,0c2-0.1,3.4-0.8,4.3-2c2-2.9,0.6-7.8,0.6-7.8l-3.4-21.7
			L189.6,416.4L189.6,416.4z"/>
	</g>
	<path class="st0" d="M367.4,483.4l-4.1-6.3h-9.4l-5.8-8.5h9l-3.7-5.9h-9.4l-4.5-6.9h-18.5l5.1,6.9H224.5l4.1-6.9h-18.8l-4.3,6.6
		h-8.8l-4,6.1h8.6l-5.4,8.1h-9l-4.5,7.4h8.9l-8.8,12.4h18.9l9-12.9h129.3l9,12.9h18.8l-8.4-13.1H367.4z M214.6,476.6l5.6-8.5h109.2
		l5.8,8.5H214.6z"/>
</g>
</svg>
