<svg id="Layer_1" data-name="Layer 1" xmlns="http://www.w3.org/2000/svg" viewBox="0 0 468.57 161.58"><defs><style>.cls-1{fill:#6cbe45;}.cls-2{fill:none;stroke:#269d48;stroke-miterlimit:10;stroke-width:1.69px;}.cls-3{fill:#269d48;}</style></defs><path class="cls-1" d="M414.43,246.69a23.67,23.67,0,0,0,7.7,5.24,39.66,39.66,0,0,0,5.07,1.64c1.7.45,3.16.74,4.21.93l1.79-.1a14.34,14.34,0,0,0,3.3-.55,26.2,26.2,0,0,0,7.33-3,18.66,18.66,0,0,0,3.77-3,18,18,0,0,0,2.13-2.63,5.4,5.4,0,0,1,.77-2.91c1.14-1.77,3.08-1.89,6-3.45a38.19,38.19,0,0,0,4.36-2.69c-.5-.71-.9-1.36-1.38-1.94-.3-.37-.73-.36-1.21.05s-1.05.86-1.59,1.26l-.06,0a2.27,2.27,0,0,1-1.45,1L453,238.23a.18.18,0,0,1-.06.07c-2.31,1.37-4.53,2.8-6.83,4a45.12,45.12,0,0,1-5.84,2.49,30,30,0,0,1-7.06,1.54,20.38,20.38,0,0,1-5.63-.1c-.85-.12-1.78,0-2.42-.52l.08-.21,2.66.17,1.38,0a31.35,31.35,0,0,0,6.55-1.05.54.54,0,0,1,.2,0l.28-.09.18,0s0,0,0,0a.21.21,0,0,1,.15,0l0,0a3.71,3.71,0,0,1,.41-.12l.26-.08,1.34-.44.17-.11.08-.05,0,0h0a.25.25,0,0,1,.13,0l.22-.09,4.05-1.9,1.76-.84.16-.14c.76-.5,1.48-.92,2.17-1.41,1.47-1,2.91-2.08,4.37-3.12a1.33,1.33,0,0,0,.06-.14,2,2,0,0,0-.23-.52,11.2,11.2,0,0,0-1.46-1.67,38.21,38.21,0,0,0-6.5-3.46c-1-.27-2-.5-3.09-.76l-.58,0-.18,0h-.08l-.61,0a1.84,1.84,0,0,0-.33,0h-.36l-4,.7c-.39.08-.78.21-1.17.32,0,0,0,0,0,0a23.44,23.44,0,0,0-3,1.73c-3,2.42-3.51,3.5-5.81,5a14.91,14.91,0,0,1-7.17,2.33c-4.21.32-6.3-1.37-7-.43C409.2,240.43,412.38,244.56,414.43,246.69Z" transform="translate(-174.7 -207.41)"/><path class="cls-1" d="M412.29,253.51c-3.39-1.78-7.6-3.92-13.34-4.39a53.22,53.22,0,0,0-8.08.13c-2.66.19-4.89.49-6.49.74l-.48.18a61.5,61.5,0,0,0-6.5,3.24,25.85,25.85,0,0,0-8,8.5,38.15,38.15,0,0,0-4.51,10.8,33.93,33.93,0,0,1-1.88,4.11c-1.81,3.27-3.74,4.5-6.94,7.9a59.49,59.49,0,0,0-4.92,6c1.05.77,1.95,1.51,2.92,2.1.62.39,1.23.15,1.71-.66s1.09-1.75,1.68-2.59l.06-.09A3.38,3.38,0,0,1,359,287.3l2.43-3.41a.34.34,0,0,1,0-.15c2.63-3.09,5.12-6.23,7.83-9.07a68.82,68.82,0,0,1,7.16-6.44,44.43,44.43,0,0,1,9.37-5.67,30.72,30.72,0,0,1,8.12-2.63c1.28-.25,2.54-.89,3.72-.44v.34c-1.29.34-2.57.69-3.91,1.07l-1.94.75a46.41,46.41,0,0,0-8.89,4.72,1,1,0,0,1-.27.14l-.35.26a1,1,0,0,1-.26.13s0,0,0,0a.44.44,0,0,1-.2.12l0,0c-.19.15-.34.24-.53.37a2.19,2.19,0,0,0-.33.23c-.59.47-1.15.88-1.7,1.3-.05.06-.11.12-.2.24l-.09.1,0-.05v0a.37.37,0,0,1-.17.13,3.11,3.11,0,0,0-.28.23c-1.64,1.61-3.25,3.17-4.86,4.72l-2.12,2.07a2.31,2.31,0,0,0-.16.27c-.85,1.1-1.68,2.06-2.43,3.09-1.59,2.19-3.15,4.41-4.72,6.62a.42.42,0,0,0,0,.23,2.77,2.77,0,0,0,.58.63,17.87,17.87,0,0,0,2.91,1.69,57.79,57.79,0,0,0,11,1.76c1.59-.1,3.18-.29,4.8-.42.31-.07.56-.12.86-.21a2.08,2.08,0,0,1,.26-.07s.07,0,.12,0c.31-.11.58-.17.89-.26a3.89,3.89,0,0,0,.49-.12c.18-.08.32-.11.51-.19,1.85-1,3.65-2,5.44-3,.53-.29,1-.68,1.52-1l0-.07a33.93,33.93,0,0,0,3.42-3.95c3.14-4.94,3.33-6.73,5.86-10.07a22.62,22.62,0,0,1,9.15-6.87c5.88-2.51,9.8-1.21,10.28-2.83C423.07,259.14,414.39,254.6,412.29,253.51Z" transform="translate(-174.7 -207.41)"/><path class="cls-2" d="M580,254.88" transform="translate(-174.7 -207.41)"/><path class="cls-3" d="M213.18,248.9c-11.52,0-20.89,4-27.86,11.82-7,8-10.62,18.35-10.62,30.68s3.57,22.67,10.62,30.69c7,7.84,16.34,11.81,27.86,11.81a52.7,52.7,0,0,0,11.89-1.22,47.62,47.62,0,0,0,9.22-3.1,42.79,42.79,0,0,0,7-4.09,59.08,59.08,0,0,0,5.09-4.12,2.92,2.92,0,0,0,1.18-2,3.36,3.36,0,0,0-1-2.46,6.89,6.89,0,0,0-1.8-1.34c-.56-.28-1.49-.39-2.73.68s-2.6,2.27-4.22,3.58a33.63,33.63,0,0,1-5.83,3.7,38.36,38.36,0,0,1-8,2.92,44.7,44.7,0,0,1-10.83,1.18c-9.5,0-17.32-3.28-23.25-9.73-5.23-5.84-8.19-13.43-8.83-22.59a1.45,1.45,0,0,1,.21-1.17,2.07,2.07,0,0,1,1.49-.43h63.32c3.62,0,5.54-1.92,5.54-5.54v-2.41a35.68,35.68,0,0,0-10.82-26.06C233.66,252.54,224.36,248.9,213.18,248.9Zm0,6.26c9.18,0,16.91,3.06,23,9.12a28.94,28.94,0,0,1,9.26,21.5c0,1.22-.47,1.69-1.69,1.69H182.8a1.91,1.91,0,0,1-1.34-.39,1.58,1.58,0,0,1-.2-1.21v0a35.87,35.87,0,0,1,8.66-20.65C195.87,258.54,203.69,255.16,213.18,255.16Z" transform="translate(-174.7 -207.41)"/><path class="cls-3" d="M338.65,315.59c-.56-.28-1.49-.39-2.73.68s-2.59,2.27-4.22,3.58a33.63,33.63,0,0,1-5.83,3.7,38.36,38.36,0,0,1-8,2.92A44.76,44.76,0,0,1,307,327.65c-9.5,0-17.32-3.28-23.26-9.73s-9-15.5-9-26.52c0-10.59,2.86-19.41,8.5-26.21,5.73-6.65,12.9-10,21.32-10,7.82,0,15.24,2.81,22,8.36a48.56,48.56,0,0,1,7.77,8v7.79a3.13,3.13,0,1,0,6.26,0V253.64a3.13,3.13,0,0,0-6.26,0v6.43a3.39,3.39,0,0,1-.32,1.75h0s-.31,0-1-.65c-8.13-8.14-17.71-12.27-28.46-12.27-10.24,0-18.91,4-25.77,12s-10.3,18.08-10.3,30.52,3.57,22.78,10.62,30.69S295.48,333.9,307,333.9a52.7,52.7,0,0,0,11.89-1.22,47.62,47.62,0,0,0,9.22-3.1,43.22,43.22,0,0,0,7-4.09,59.08,59.08,0,0,0,5.09-4.12,3,3,0,0,0,1.18-2,3.38,3.38,0,0,0-1-2.46A6.69,6.69,0,0,0,338.65,315.59Z" transform="translate(-174.7 -207.41)"/><path class="cls-3" d="M438,286.64A42.56,42.56,0,0,0,425.87,263l-.51-.5L421,266.94l.51.5a37,37,0,0,1,4.76,46.37,31.61,31.61,0,0,1-46.12,7.55,36.21,36.21,0,0,1-13.61-23,38.24,38.24,0,0,1-.5-6.21v-.72l-6.19,0v.72a45,45,0,0,0,.58,7.23c3.27,20,20.22,35.06,39.42,35.06a38.34,38.34,0,0,0,6-.49C427.26,330.39,441.65,309.2,438,286.64Z" transform="translate(-174.7 -207.41)"/><path class="cls-1" d="M548.63,248.93H537.85a18,18,0,0,0-5.79.86,28.8,28.8,0,0,0-4.36,1.89,17.87,17.87,0,0,0-3.22,2.37c-6.34-4-14.67-6-24.79-6-12.18,0-21.52,2.74-27.77,8.14s-9.45,12.7-9.45,21.61a29.09,29.09,0,0,0,1.88,11.23,26.93,26.93,0,0,0,4.61,7.51c.63.68.94,1.26.88,1.65a1.13,1.13,0,0,1-.64.69,25.17,25.17,0,0,0-6.07,3.93,9.4,9.4,0,0,0-3.15,7.51,9.18,9.18,0,0,0,2.78,6.73,16.53,16.53,0,0,0,6,3.92c.64.18.64.42.64.55s0,.44-.72.75l0,0a23.09,23.09,0,0,0-12.84,20.22,23.89,23.89,0,0,0,2.4,10.69,21.57,21.57,0,0,0,7.71,8.41,42.1,42.1,0,0,0,13.59,5.41,106.2,106.2,0,0,0,40.31,0,42.19,42.19,0,0,0,13.59-5.41,21.68,21.68,0,0,0,7.72-8.41,25.08,25.08,0,0,0,0-21.37,21.63,21.63,0,0,0-7.72-8.42,42.19,42.19,0,0,0-13.59-5.41,90.89,90.89,0,0,0-20.15-1.92H478.94c-4.5,0-7.79-.56-9.77-1.66s-2.78-2.37-2.78-4.1a5.46,5.46,0,0,1,2.57-5,28,28,0,0,1,7.22-3,34.2,34.2,0,0,0,9.56,3.74,58.32,58.32,0,0,0,13.95,1.51c12.17,0,21.51-2.74,27.76-8.14s9.46-12.7,9.46-21.61A29.28,29.28,0,0,0,535,267.22a28.22,28.22,0,0,0-4.67-8.15,1.65,1.65,0,0,1-.63-1.11,2.11,2.11,0,0,1,.75-1.42c.62-.31,1.29-.62,1.95-.91s1.45-.46,2.38-.74a11.18,11.18,0,0,1,3-.38h5.81c1.26,0,1.77.51,1.77,1.77v14.93a3.21,3.21,0,1,0,6.41,0V252.13A2.89,2.89,0,0,0,548.63,248.93ZM523.36,295c-4.77,4.12-12.73,6.21-23.67,6.21S480.78,299.1,476,295s-7.13-9.86-7.13-17.13,2.4-12.9,7.14-17.05,12.72-6.29,23.67-6.29,18.9,2.11,23.67,6.29,7.14,9.89,7.14,17.05S528.09,290.88,523.36,295Zm-23.67,67.61a88.64,88.64,0,0,1-18.1-1.56,35.48,35.48,0,0,1-11.47-4.3,16.57,16.57,0,0,1-6.05-6.36,17.25,17.25,0,0,1-1.83-7.81,15.75,15.75,0,0,1,8.44-14.4A38.67,38.67,0,0,1,482.33,324a104.52,104.52,0,0,1,35.46.09,35.05,35.05,0,0,1,11.46,4.3,16.48,16.48,0,0,1,6,6.35,17.58,17.58,0,0,1,0,15.62,16.57,16.57,0,0,1-6,6.36,35.28,35.28,0,0,1-11.46,4.3A88.77,88.77,0,0,1,499.69,362.59Z" transform="translate(-174.7 -207.41)"/><path class="cls-1" d="M631.78,260.27c-7.62-8.08-17.68-12.17-29.88-12.17s-22.27,4.09-29.89,12.17S560.53,279,560.53,292s3.86,23.63,11.48,31.69,17.68,12.17,29.89,12.17,22.26-4.09,29.88-12.17,11.48-18.73,11.48-31.69S639.4,268.33,631.78,260.27ZM601.9,329.4c-10.59,0-19.15-3.41-25.45-10.14s-9.51-15.93-9.51-27.31,3.23-20.42,9.59-27.22,14.89-10.22,25.37-10.22,19,3.44,25.36,10.22,9.59,16,9.59,27.22-3.2,20.56-9.51,27.31S612.48,329.4,601.9,329.4Z" transform="translate(-174.7 -207.41)"/><path class="cls-1" d="M463.17,220.45a16.6,16.6,0,0,0-2.88-6,27.32,27.32,0,0,0-2.54-2.82c-.89-.89-1.68-1.58-2.27-2.07-.05,0-1-.53-1.13-.58a10.44,10.44,0,0,0-2.23-.84,18.68,18.68,0,0,0-5.6-.75,13.25,13.25,0,0,0-3.39.49,13,13,0,0,0-2.24.87,3.84,3.84,0,0,1-1.52,1.51c-1.33.69-2.57.07-4.94,0a29,29,0,0,0-3.64.11c0,.62.07,1.16.15,1.69.06.34.33.48.77.4s1-.16,1.43-.21h.05a1.6,1.6,0,0,1,1.26-.13l2-.19.07,0c1.9,0,3.78-.12,5.62,0a31.48,31.48,0,0,1,4.49.55A20.56,20.56,0,0,1,451.5,214a14.54,14.54,0,0,1,3.44,2.06c.48.38,1.1.62,1.3,1.19l-.12.1-1.59-1.06-.86-.45a21.87,21.87,0,0,0-4.42-1.69l-.13-.05-.2,0a.28.28,0,0,1-.12-.05h0a.12.12,0,0,1-.1,0h0l-.3-.07-.18-.05c-.35-.06-.67-.13-1-.2H447v0h0a.17.17,0,0,1-.1,0,1,1,0,0,0-.17,0c-1.08-.08-2.12-.18-3.17-.27l-1.39-.11-.15,0c-.64,0-1.24,0-1.84.09-1.26.11-2.53.25-3.8.38,0,0,0,0-.09.06a1.5,1.5,0,0,0,0,.4,7.87,7.87,0,0,0,.3,1.55,27.37,27.37,0,0,0,2.78,4.45c.52.53,1.08,1,1.63,1.57l.34.24a.41.41,0,0,1,.11.07s0,0,0,0l.37.23a1.43,1.43,0,0,0,.2.14l.22.12c.93.34,1.83.68,2.74,1a8,8,0,0,0,.84.22h0a16.69,16.69,0,0,0,2.45,0c2.72-.42,3.41-.91,5.38-1a10.54,10.54,0,0,1,5.25,1.12c2.71,1.31,3.4,3.09,4.18,2.77C464.16,226.17,463.68,222.49,463.17,220.45Z" transform="translate(-174.7 -207.41)"/><path class="cls-1" d="M498.87,237.09a12.94,12.94,0,0,0-3-4.08,21.2,21.2,0,0,0-2.33-1.75c-.79-.54-1.49-.95-2-1.23l-.94-.27a7.77,7.77,0,0,0-1.8-.31,14.31,14.31,0,0,0-4.33.25,10.56,10.56,0,0,0-2.47.86,10.17,10.17,0,0,0-1.57,1,2.88,2.88,0,0,1-.92,1.36c-.9.71-1.92.43-3.72.7a22.14,22.14,0,0,0-2.73.62c.13.45.22.86.37,1.24s.31.32.63.19.7-.25,1.05-.36h0a1.22,1.22,0,0,1,.93-.28l1.44-.43.05,0c1.43-.29,2.83-.63,4.23-.84a23.77,23.77,0,0,1,3.46-.24,15.88,15.88,0,0,1,3.92.47,11.1,11.1,0,0,1,2.89,1c.41.22.91.31,1.15.71l-.08.09-1.34-.56-.72-.22a16.67,16.67,0,0,0-3.57-.63l-.11,0h-.16l-.1,0h0a.15.15,0,0,1-.08,0h-1.16l-.11,0h-.05v0h-.22l-2.42.26-1.06.12-.11,0c-.48.12-.93.21-1.37.34l-2.81.83-.06.06a1,1,0,0,0,0,.31,5.82,5.82,0,0,0,.45,1.12,20.65,20.65,0,0,0,2.74,3c.47.32,1,.62,1.45.94l.29.13.09,0,0,0a3,3,0,0,1,.32.12l.16.07.19.06,2.21.36c.21,0,.44,0,.66,0l0,0a12.35,12.35,0,0,0,1.85-.36c2-.71,2.43-1.17,3.89-1.56a8.16,8.16,0,0,1,4.12.08c2.23.59,3,1.83,3.55,1.47C500.45,241.25,499.55,238.55,498.87,237.09Z" transform="translate(-174.7 -207.41)"/><path class="cls-1" d="M494.73,210.63a11,11,0,0,0-4-1.81,18,18,0,0,0-2.48-.34c-.83-.07-1.53-.09-2-.09l-.82.19a7.37,7.37,0,0,0-1.49.52,12,12,0,0,0-3.15,2,8.68,8.68,0,0,0-1.5,1.68,7.85,7.85,0,0,0-.77,1.39,2.48,2.48,0,0,1-.13,1.41c-.38.92-1.27,1.13-2.51,2.09a19.53,19.53,0,0,0-1.8,1.6c.29.29.53.56.8.79s.37.11.56-.12.41-.48.63-.71l0,0a1.07,1.07,0,0,1,.58-.6c.31-.3.61-.61.91-.92a.06.06,0,0,1,0,0c1-.83,1.87-1.67,2.84-2.41a21.1,21.1,0,0,1,2.51-1.63,13.65,13.65,0,0,1,3.14-1.28,9.88,9.88,0,0,1,2.62-.42c.4,0,.82-.15,1.16,0l0,.1-1.25.14-.63.13a15.18,15.18,0,0,0-2.95,1l-.09,0-.12.07-.08,0s0,0,0,0l-.07,0h0a1,1,0,0,1-.18.08l-.11.06-.58.32-.08.06a.07.07,0,0,1,0,0v0h0l-.06,0-.1,0-1.72,1.22-.75.53L481,216c-.31.29-.61.54-.89.82-.6.6-1.18,1.2-1.77,1.81,0,0,0,0,0,.07a1.39,1.39,0,0,0,.15.22,6.07,6.07,0,0,0,.81.65,18.2,18.2,0,0,0,3.3,1.08l1.49.1.27,0h.09s0,0,0,0l.29,0h.16l.16,0,1.81-.66a4.9,4.9,0,0,0,.52-.24v0a9.81,9.81,0,0,0,1.24-1c1.2-1.36,1.34-1.9,2.28-2.8a6.93,6.93,0,0,1,3.14-1.66c1.92-.49,3,.12,3.29-.38C497.66,213.1,495.85,211.44,494.73,210.63Z" transform="translate(-174.7 -207.41)"/><path class="cls-1" d="M522.87,218.27a9.32,9.32,0,0,0-3.52-1.36,15.13,15.13,0,0,0-2.15-.18c-.71,0-1.31,0-1.75,0l-.69.21a5.42,5.42,0,0,0-1.26.52,10.57,10.57,0,0,0-2.61,1.86,8.41,8.41,0,0,0-1.22,1.53,7.34,7.34,0,0,0-.59,1.23,2.14,2.14,0,0,1,0,1.22c-.28.8-1,1-2.06,1.92a15.06,15.06,0,0,0-1.47,1.46c.26.24.48.46.72.64s.33.07.48-.13a8,8,0,0,1,.51-.64l0,0a.89.89,0,0,1,.48-.54l.73-.84a.06.06,0,0,1,0,0c.78-.75,1.53-1.52,2.32-2.2a17.53,17.53,0,0,1,2.08-1.52,11.26,11.26,0,0,1,2.65-1.26,8.25,8.25,0,0,1,2.23-.49c.34,0,.7-.17,1,0v.09l-1.07.18-.54.14a12.93,12.93,0,0,0-2.49,1l-.07,0-.1.06-.07,0s0,0,0,0l-.06,0h0l-.15.09-.1.05-.49.3-.05.06,0,0h0s0,0,0,0,0,0,0,0l-.08.06L512,223l-.62.5-.05.06c-.26.27-.5.51-.73.76-.48.54-1,1.09-1.43,1.64,0,0,0,0,0,.06a.7.7,0,0,0,.14.18,5.2,5.2,0,0,0,.73.53,16,16,0,0,0,2.89.76c.42,0,.85,0,1.28,0l.24,0h.1a2.21,2.21,0,0,1,.25,0l.13,0,.14,0,1.53-.65a3.55,3.55,0,0,0,.43-.23v0a9.32,9.32,0,0,0,1-1c1-1.23,1.06-1.7,1.83-2.52a6,6,0,0,1,2.61-1.58c1.64-.52,2.61,0,2.81-.48C525.52,220.25,523.88,218.92,522.87,218.27Z" transform="translate(-174.7 -207.41)"/></svg>