<?xml version="1.0" encoding="utf-8"?>
<!-- Generator: Adobe Illustrator 26.0.0, SVG Export Plug-In . SVG Version: 6.00 Build 0)  -->
<svg version="1.1" id="Layer_1" xmlns="http://www.w3.org/2000/svg" xmlns:xlink="http://www.w3.org/1999/xlink" x="0px" y="0px"
	 viewBox="0 0 595.3 1000" style="enable-background:new 0 0 595.3 1000;" xml:space="preserve">
<style type="text/css">
	.st0{fill:#279FEF;}
	.st1{fill:#FFFFFF;}
</style>
<circle class="st0" cx="298.5" cy="448.3" r="296.9"/>
<path class="st1" d="M478,334c-8.5,14-19.8,25.3-32.6,35.4c-2.6,2.1-3.5,4.1-3.6,7.5c-1,81.1-32.4,146.8-100.3,192.8
	c-39.7,26.9-84.6,35.9-132.1,32.4c-33.6-2.4-64.8-12.6-93.7-29.9c-1.6-0.9-3.1-1.9-4.6-3.4c40.5,3.2,76.9-7.1,110.2-32.6
	c-21.7-1.5-39.3-9.3-53.3-24.3c-7.8-8.3-13.6-17.8-17.3-29.8c11.8,0,23,0,34.3,0c0.1-0.6,0.2-1.2,0.2-1.8
	c-17.6-4.4-32.3-13.4-43.7-27.4c-11.4-14-17.5-30-17.5-48.9c10.5,5.5,21.1,9,33.3,9.4c-40.1-31.2-37.8-78.6-22.3-102.9
	c1.3,1.5,2.6,3,4.3,5c2.3,2.6,4.3,4.8,6.2,6.9c29.5,31.6,65.2,52.7,107.9,63.1c1.4,0.4,2.2,0.5,3.1,0.9c1.1,0.3,2,0.3,3.3,0.4
	c0.8,0.1,1.2,0.1,1.7,0.1c9.6,1.5,19.1,3,29.2,4.6c-5.2-42.6,9.2-73.8,49.5-91.4c1.4-0.5,2.2-0.9,3-1.2c20.1-5.3,39.7-4.2,58,6.1
	c6.1,3.4,11.5,8,16.9,12.5c2.1,1.8,3.7,2.9,6.6,1.8c12.8-4.9,25.6-9.7,38.5-14.6c1.7-0.6,3.2-1.7,4.9-2.6
	c-1.4,11.6-12.3,26.5-29.6,40.6c5.4,1.3,18.7-2,38.6-9.4C477.8,333.8,478,334,478,334z"/>
</svg>
