<svg id="Layer_1" data-name="Layer 1" xmlns="http://www.w3.org/2000/svg" viewBox="0 0 595.3 1000"><defs><style>.cls-1{fill:#279fef;}.cls-2{fill:#fff;}</style></defs><circle class="cls-1" cx="297.7" cy="447.5" r="297.7"/><path class="cls-2" d="M482,333c-8.5,14-19.8,25.3-32.6,35.4-2.6,2.1-3.5,4.1-3.6,7.5-1,81.1-32.4,146.8-100.3,192.8-39.7,26.9-84.6,35.9-132.1,32.4-33.6-2.4-64.8-12.6-93.7-29.9a20.2,20.2,0,0,1-4.6-3.4c40.5,3.2,76.9-7.1,110.2-32.6-21.7-1.5-39.3-9.3-53.3-24.3a74.21,74.21,0,0,1-17.3-29.8H189a11,11,0,0,0,.2-1.8c-17.6-4.4-32.3-13.4-43.7-27.4S128,421.9,128,403c10.5,5.5,21.1,9,33.3,9.4-40.1-31.2-37.8-78.6-22.3-102.9,1.3,1.5,2.6,3,4.3,5,2.3,2.6,4.3,4.8,6.2,6.9,29.5,31.6,65.2,52.7,107.9,63.1a24.63,24.63,0,0,1,3.1.9,16.56,16.56,0,0,0,3.3.4,11.56,11.56,0,0,0,1.7.1c9.6,1.5,19.1,3,29.2,4.6-5.2-42.6,9.2-73.8,49.5-91.4,1.4-.5,2.2-.9,3-1.2,20.1-5.3,39.7-4.2,58,6.1,6.1,3.4,11.5,8,16.9,12.5,2.1,1.8,3.7,2.9,6.6,1.8,12.8-4.9,25.6-9.7,38.5-14.6a38.74,38.74,0,0,0,4.9-2.6c-1.4,11.6-12.3,26.5-29.6,40.6,5.4,1.3,18.7-2,38.6-9.4A8.42,8.42,0,0,1,482,333Z"/></svg>